<?xml version="1.0" encoding="UTF-8"?>
<svg xmlns="http://www.w3.org/2000/svg" viewBox="0 0 860.662 613.089">
  <defs>
    <style>
      .cls-1 {
        isolation: isolate;
      }

      .cls-2, .cls-3, .cls-4, .cls-5 {
        stroke-width: 0px;
      }

      .cls-6 {
        stroke-width: 3px;
      }

      .cls-6, .cls-7, .cls-8, .cls-9, .cls-10 {
        stroke-miterlimit: 10;
      }

      .cls-6, .cls-8, .cls-9 {
        stroke: #000;
      }


      .cls-7 {
        stroke-width: 2px;
      }

      .cls-7, .cls-10 {
        stroke: #c1272d;
      }

      .cls-4 {
        mix-blend-mode: multiply;
        opacity: .45;
      }

      .cls-4, .cls-5 {
        fill: #a33c27;
      }

      .cls-8 {
        fill: none;
        stroke-width: 3.914px;
      }

      .cls-9 {
        stroke-width: 1.619px;
      }

      .cls-10 {
        stroke-width: 2.765px;
      }
    </style>
  </defs>
  <g class="cls-1">

    <g id="Layer_4" data-name="Layer 4">
      <path class="cls-8" d="M661.775,181.491c1.565-1.62-1.185-8.889-42.697-9.229-13.002-.107-51.034,4.055-87.743,11.53-44.749,9.111-74.154,16.891-88.207,20.954,0,0-73.001,23.587-127.134,52.78-14.556,7.85-40.574,20.579-53.24,31.105-9.153,7.606-11.781,19.594-8.102,24.257,10.779,13.663,14.051,11.061,57.178,31.526,0,0,45.21,16.446,80.902,19.455,20.759,1.75,45.831,7.69,51.317,10.029,2.921,1.245-23.709,13.728-40.907,19.983-29.643,10.781-103.953,43.538-103.953,43.538,0,0-44.934,16.562-64.03,30.872,0,0,82.934,4.33,165.306-2.699,74.061-6.32,133.844-20.238,169.239-31.901,28.856-9.509,86.173-37.168,113.835-68.316,0,0,5.354-6.825,4.461-14.048-2.221-17.979-88.85-36.726-149.526-44.25-11.23-1.392-37.476-4.815-37.476-4.815-12.492-1.505-44.83-6.514-44.83-6.514,0,0,12.886-11.977,29.661-25.775,7.933-6.525,18.227-17.103,29.148-23.669,20.523-12.339,133.536-51.086,146.798-64.812Z"/>
      <path class="cls-2" d="M319.388,462.186c-22.015,0-41.938-.623-57.492-1.333,18.293-8.759,36.826-16.034,37.121-16.149l.177-.069.176-.076c.761-.332,76.43-33.271,106.242-43.987,8.734-3.139,16.146-7.831,22.91-10.819,10.646-4.702,20.425-11.13,20.331-15.822-.076-3.822-5.164-6.191-9.401-7.185-13.682-3.21-28.065-6.673-47.236-8.255-32.897-2.715-74.813-17.727-80.225-19.818-8.708-3.363-50.147-20.127-54.057-30.298-.706-1.838,1.24-8.883,6.181-12.942,13.657-11.215,44.238-26.124,53.238-30.92,53.055-28.277,125.22-51.693,128.881-52.873,10.847-3.095,40.995-11.245,89.738-21.054,37.348-7.516,62.752-11.321,83.938-12.326,12.632-.599,37.143-.305,31.828,2.922-9.663,5.867-53.142,22.588-75.964,31.584-29.141,11.486-54.308,21.406-63.699,26.985-11.389,6.768-21.781,15.221-30.131,22.013,0,0-29.404,24.918-29.869,25.339l-16.735,15.161,22.474,2.203c.311.03,31.229,3.064,43.819,4.562.174.023,27.046,3.486,38.488,4.888,30.025,3.68,64.568,10.571,92.402,18.434,40.72,11.503,46.524,16.55,47.87,18.195,3.109,1.752,1.733,8.707.05,10.614-26.668,29.252-81.329,56.641-110.102,66.011-21.766,7.089-82.067,24.393-171.706,31.951-24.083,2.031-50.747,3.062-79.247,3.062h-.002Z"/>
    </g>
    <g id="Layer_3" data-name="Layer 3">
      <path class="cls-5" d="M313.032,353.064l-56.369,23.605s-205.537-14.762-203.656-61.898c1.834-45.975,85.534-100.425,124.968-119.694,60.535-29.58,146.894-61.883,193.299-72,131.319-28.629,327.439-24.306,402.248,29.895.869.63,40.758,26.971-21.955,57.468-19.089,9.283-104.124,35.604-133.71,45.545-25.166,8.455-86.647,21.977-104.933,26.14-27.458,6.252-49.729,11.064-49.729,11.064l19.404-15.449,34.51-27.287s104.561-42.191,156.611-66.038c7.747-3.55-3.328-12.042-25.682-15.592-23.135-3.674-60.31,1.248-67.299,1.834-46.433,3.898-131.618,25.108-197.427,49.529-50.146,18.608-121.01,59.473-133.108,71.885-2.226,2.284-8.484,19.261-2.293,26.14,7.62,8.467,45.516,25.108,65.121,34.854Z"/>
      <path class="cls-5" d="M433.803,375.981s-55.55-12.245-92.911-10.764c0,0-65.022,10.123-108.688,26.828-51.075,19.54-131.159,50.446-138.038,70.051-3.637,10.366,6.332,25.647,12.726,32.102,11.924,12.038,79.567,37.72,168.191,55.605,108.728,21.942,252.459,8.369,375.478-29.809,88.952-27.606,136.892-54.573,156.153-70.854,20.221-17.092,36.983-45.986,37.834-63.631,1.605-33.248-19.72-65.694-78.191-91.376-50.227-22.06-139.529-25.338-139.529-25.338,0,0-42.994,12.497-69.561,34.987,0,0,142.256,22.662,138.465,50.083-4.93,35.656-102.153,79.338-128.522,87.134-44.728,13.224-101.694,26.828-184.357,32.561-65.18,4.52-124.485,2.395-162.917-3.096-9.631-1.376,125.771-59.389,125.771-59.389l88.096-35.096Z"/>
    </g>
    <g id="Layer_7" data-name="Layer 7">
      <path class="cls-4" d="M433.803,375.981s-55.55-12.245-92.911-10.764c0,0-65.022,10.123-108.688,26.828-51.075,19.54-131.159,50.446-138.038,70.051-3.637,10.366,6.332,25.647,12.726,32.102,11.924,12.038,79.567,37.72,168.191,55.605,108.728,21.942,252.459,8.369,375.478-29.809,88.952-27.606,136.892-54.573,156.153-70.854,20.221-17.092,36.983-45.986,37.834-63.631,1.605-33.248-19.72-65.694-78.191-91.376-50.227-22.06-139.529-25.338-139.529-25.338,0,0-42.994,12.497-69.561,34.987,0,0,142.256,22.662,138.465,50.083-4.93,35.656-102.153,79.338-128.522,87.134-44.728,13.224-101.694,26.828-184.357,32.561-65.18,4.52-124.485,2.395-162.917-3.096-9.631-1.376,125.771-59.389,125.771-59.389l88.096-35.096Z"/>
      <path class="cls-4" d="M313.032,353.064l-56.369,23.605s-205.537-14.762-203.656-61.898c1.834-45.975,85.534-100.425,124.968-119.694,60.535-29.58,146.894-61.883,193.299-72,131.319-28.629,327.439-24.306,402.248,29.895.869.63,40.758,26.971-21.955,57.468-19.089,9.283-104.124,35.604-133.71,45.545-25.166,8.455-86.647,21.977-104.933,26.14-27.458,6.252-49.729,11.064-49.729,11.064l19.404-15.449,34.51-27.287s104.561-42.191,156.611-66.038c7.747-3.55-3.328-12.042-25.682-15.592-23.135-3.674-60.31,1.248-67.299,1.834-46.433,3.898-131.618,25.108-197.427,49.529-50.146,18.608-121.01,59.473-133.108,71.885-2.226,2.284-8.484,19.261-2.293,26.14,7.62,8.467,45.516,25.108,65.121,34.854Z"/>
    </g>
    <g id="Layer_5" data-name="Layer 5">
      <polygon class="cls-9" points="454.814 297.057 460.027 303.573 547.232 285.168 492.729 311.272 480.406 328.589 498.772 367.099 496.521 367.099 469.269 340.478 449.517 343.062 464.529 346.681 503.156 378.729 512.161 382.089 493.677 332.207 500.859 315.089 586.807 272.503 577.091 274.571 461.212 299.383 454.814 297.057"/>
      <polygon class="cls-7" points="453.35 290.93 460.076 298.638 572.586 276.866 502.268 307.745 486.369 328.229 510.064 373.783 507.159 373.783 472 342.293 446.517 345.35 465.885 349.631 515.72 387.541 527.338 391.516 503.49 332.51 512.757 312.26 623.643 261.885 611.108 264.331 461.605 293.682 453.35 290.93"/>
      <path class="cls-6" d="M439.694,293.433s20.882-3.669,22.823-6.726l-50.033-38.828-21.707-9.608,21.401,64.946-7.949,13.452-114.955,48.917-27.516,11.924s159.287-32.408,180.382-32.713l-14.981-6.726,1.834,3.975-109.758,21.401,1.223-3.975,93.86-38.217,11.006-17.121-16.204-45.86,34.854,28.127-4.28,7.032Z"/>
      <path class="cls-10" d="M440.386,295.22s19.246-3.381,21.035-6.199l-46.112-35.785-20.006-8.855,19.724,59.856-7.326,12.398-105.947,45.084-25.36,10.989s146.804-29.868,166.247-30.15l-13.807-6.199,1.691,3.663-101.157,19.724,1.127-3.663,86.505-35.222,10.144-15.779-14.934-42.266,32.122,25.923-3.945,6.481Z"/>
    </g>
    <g id="Layer_2" data-name="Layer 2">
      <g>
        <path class="cls-2" d="M678.306,171.306c10.554,6.578,6.025,14.09-3.912,18.126-7.256,3.42-14.561,6.659-21.862,9.933-42.126,18.737-89.62,39.183-132.098,57.113,0,0,.845-.496.845-.496,0,0-41.968,33.324-41.968,33.325l-2.925-6.16c41.488-9.255,83.114-18.394,124.2-29.225,5.906-1.625,11.797-3.222,17.467-5.462,34.42-11.931,69.503-21.962,103.749-34.081,11.478-4.165,23.167-8.053,33.943-13.723,7.036-4.297,14.429-9.364,19.688-15.699,6.741-8.041,5.305-16.587-2.385-23.597-7.471-6.981-16.674-11.832-26.011-16.162-53.425-22.982-112.526-30.031-170.277-32.317-72.28-2.019-145.335,2.898-215.744,19.932-10.183,2.479-20.485,5.58-30.453,8.809-40.33,13.225-80.074,28.567-119.078,45.274-38.932,16.439-76.015,37.54-108.271,64.92-15.68,13.518-30.882,28.517-39.587,47.564-1.427,3.085-2.661,6.238-3.485,9.382-.891,3.842-1.523,7.402-.003,10.587,2.762,4.84,7.669,8.029,12.277,11.215,5.782,3.74,11.874,7.072,18.213,9.822,25.729,10.998,53.824,16.326,81.436,20.83,27.892,4.288,56.162,7.193,84.318,8.776,0,0-1.503.262-1.503.262l49.705-20.579-.178,6.388c-14.143-7.581-28.135-15.425-41.702-23.995-5.842-3.985-12.7-7.629-16.583-13.763-3.242-4.367-4.523-10.084-3.997-15.466,0,0,.335.012.335.012.015,1.768.156,3.527.529,5.229,1.189,5.925,5.203,11.002,9.961,14.571,3.393,2.157,7.812,4.662,11.41,6.59,14.042,7.412,28.559,14.127,43.079,20.514,0,0,7.041,3.4,7.041,3.4-3.609,1.484-51.871,21.483-56.924,23.567,0,0-.733.304-.733.304l-.77-.041c-28.538-1.605-56.833-4.517-85.067-8.852-31.714-5.332-64.113-11.098-92.999-26.133-8.71-4.963-22.812-12.703-25.292-22.802-1.629-7.928,1.488-15.745,4.579-22.757,9.127-19.997,24.967-35.811,41.395-49.948,32.804-27.839,70.493-49.334,110.033-66.018,39.285-16.825,79.104-32.195,119.711-45.513,10.094-3.273,20.593-6.425,30.904-8.938,71.067-17.201,144.741-22.177,217.679-20.138,58.69,2.328,118.515,9.502,172.944,32.943,14.927,7.119,40.361,19.693,36.423,39.627-1.766,8.1-7.646,13.892-13.575,18.843-4.449,3.555-8.687,6.556-13.592,9.446-11.202,5.944-23.238,9.937-35.073,14.238-34.356,12.154-69.293,22.149-103.622,34.034-5.891,2.322-12.026,3.995-18.081,5.66-46.12,12.13-92.788,22.232-139.326,32.568,0,0,11.863-9.42,11.863-9.42l41.967-33.324s.414-.323.415-.324c.525-.13,88.944-35.669,89.47-35.822,22.243-8.91,44.579-17.668,66.63-27.024,8.368-3.216,13.804-8.072,4.867-16.026h0Z"/>
        <path class="cls-2" d="M676.14,178.197c-12.243-8.485-27.676-10.312-42.222-10.515-24.559-.227-49.084,2.234-73.386,5.576-19.445,2.741-38.778,6.322-57.811,11.041-38.078,9.569-76.051,19.939-112.997,33.217-18.363,6.639-36.045,15.358-53.633,23.883-26.134,13.166-52.588,26.459-76.538,43.216-3.09,2.261-5.946,4.648-9.017,6.85-1.268,1.018-1.919,2.753-2.567,4.367-1.186,3.43-1.759,7.078-2.145,10.712,0,0-.809,0-.809,0-.368-3.742-.745-7.527-.679-11.343.048-2.092.153-4.334,1.157-6.376,2.371-4.106,6.4-6.98,10.149-9.655,24.658-16.745,51.404-29.695,78.081-42.664,13.374-6.338,26.832-12.499,40.54-18.108,41.458-15.892,84.697-26.542,127.78-36.91,43.226-9.7,87.57-15.303,131.896-14.577,14.589.455,30.077,2.564,42.203,11.285h0Z"/>
        <path class="cls-2" d="M696.628,355.36c-2.133-28.385-117.123-47.241-142.792-51.655,7.292-4.517,15.449-9.918,23.049-13.841,15.8-8.406,32.203-15.307,49.29-20.716,0,0,.552-.171.552-.171l.616.03c30.17,1.537,60.373,4.442,90.019,10.463,29.963,5.745,58.998,16.725,84.353,33.916,19.436,12.732,36.118,31.313,41.951,54.298,2.987,11.973,1.813,23.879-3.047,35.201-4.772,11.678-11.112,22.708-19.804,32.036-9.255,11.043-20.776,20.104-32.846,27.791-32.117,20.25-67.682,34.003-103.363,46.413-35.649,12.133-72.019,22.698-108.825,30.666-103.191,21.27-210.995,29.823-314.663,7.052-29.516-6.287-58.78-13.592-87.623-22.531-14.414-4.532-28.747-9.412-42.713-15.612-7.078-3.219-14.004-6.605-20.355-11.311-3.231-2.356-6.173-5.561-8.425-8.946-5.78-8.279-12.371-20.693-5.681-30.486,3.876-4.423,8.812-7.978,13.6-11.168,15.984-10.338,33.364-18.309,50.586-26.02,23.504-10.394,49.337-20.413,73.348-29.717,25.059-8.637,50.707-15.17,76.571-20.781,14.861-3.175,30.186-5.814,45.479-5.13,26.51.906,52.942,4.971,78.808,10.797-63.605,25.637-127.428,50.992-189.906,79.3-4.199,1.951-8.384,3.932-12.522,6.009-4.045,2.187-8.452,3.986-11.882,7.091,1.573-1.707,3.678-2.824,5.625-4.054,5.986-3.543,12.195-6.693,18.398-9.833,58.226-28.655,117.726-54.582,177.094-80.77,0,0,.639,6.658.639,6.658-7.254-1.454-14.656-2.722-22.023-3.849-14.703-2.215-29.564-3.956-44.402-4.35-22.325-.845-44.12,4.984-65.729,9.984-18.117,4.53-36.185,9.351-53.778,15.515-23.822,9.247-49.572,19.227-72.893,29.534-13.669,6.063-27.242,12.401-40.13,19.71-7.403,4.325-14.949,8.773-20.911,14.903,0,0-.462.496-.462.496-.093.097.01-.01-.044.049l-.083.113c-2.103,3.729-1.042,8.641.777,12.856,2.013,4.639,5.048,9.26,8.4,13.182,3.632,3.737,8.194,6.448,12.864,9.001,16.417,8.607,34.087,14.491,51.835,20.147,42.912,12.954,86.705,23.81,131.113,30.171,74.265,10.244,149.74,5.325,223.486-6.618,51.763-8.09,102.605-21.781,152.162-38.682,35.092-12.201,70.364-25.83,101.848-45.681,10.841-6.956,21.079-14.754,29.551-24.445l1.886-2.153.532-.596.46-.481c.291-.321.585-.633.875-.971,8.686-10.184,15.353-22.623,19.263-35.487,5.999-22.009-6.515-44.62-21.802-59.88-21.654-19.78-49.181-33.295-77.318-41.293-36.02-9.821-73.429-13.527-110.634-15.515,0,0,1.167-.141,1.167-.141-5.424,1.683-10.953,3.658-16.349,5.741-10.807,4.191-21.42,8.96-31.629,14.435-5.128,2.689-10.06,5.692-14.94,8.758l-1.293-6.385c31.834,6.856,110.024,24.546,129.899,48.215,1.935,2.464,3.46,5.494,3.425,8.732l-.656.007h0Z"/>
        <path class="cls-2" d="M704.675,348.707c5.878,14.115-32.102,42.485-42.735,50.048-36.766,26.035-78.54,44.729-122.358,55.124-65.224,16.44-132.499,23.787-199.673,24.648-22.39.271-44.75-.009-67.122-1.161-16.763-1.244-33.399-3.235-50.038-5.484-1.39-.208-2.755-.389-4.164-.674-.698-.153-1.492-.649-1.66-1.457-.17-.778.094-1.503.382-2.146,1.295-2.525,3.367-4.522,5.61-6.196-2.155,1.726-4.143,3.823-5.314,6.327-.256.621-.451,1.312-.286,1.914.154.605.743.96,1.383,1.085,1.336.229,2.749.384,4.126.561,38.814,5.033,77.948,5.726,117.027,4.568,66.847-1.951,133.766-9.687,198.525-26.651,43.154-10.648,84.204-29.218,120.923-54.243,13.891-9.615,41.628-29.987,45.374-46.263h0Z"/>
      </g>
    </g>
  </g>
</svg>